<svg xmlns="http://www.w3.org/2000/svg" viewBox="0 0 512 512" width="512" height="512">
  <path d="M 272.00 441.33 L 262.00 441.75 L 256.00 439.22 L 250.00 434.73 L 66.81 251.00 L 54.42 235.00 L 46.75 221.00 L 40.95 204.00 L 38.01 186.00 L 38.07 173.00 L 39.81 160.00 L 45.61 139.00 L 55.52 118.00 L 69.00 99.90 L 84.00 86.78 L 100.00 77.69 L 119.00 70.87 L 144.00 66.13 L 161.00 66.28 L 185.00 71.92 L 202.00 79.48 L 216.00 88.75 L 231.04 102.00 L 252.00 123.01 L 254.60 127.00 L 254.29 131.00 L 251.06 135.00 L 223.00 163.02 L 218.00 165.76 L 213.00 163.76 L 181.39 133.00 L 170.00 126.73 L 160.00 123.80 L 149.00 122.58 L 132.00 125.52 L 118.00 132.70 L 106.91 143.00 L 100.39 153.00 L 95.50 168.00 L 94.85 181.00 L 98.56 197.00 L 103.00 205.87 L 109.00 213.80 L 149.00 253.39 L 176.84 227.00 L 308.86 95.00 L 326.00 82.54 L 346.00 72.80 L 373.00 66.28 L 392.00 66.13 L 415.00 70.87 L 426.00 74.82 L 443.00 83.66 L 457.89 95.00 L 474.00 113.01 L 484.00 130.17 L 490.23 147.00 L 494.27 170.00 L 493.12 193.00 L 488.45 213.00 L 480.00 231.94 L 469.00 247.91 L 434.00 282.47 L 431.00 282.60 L 427.88 281.00 L 397.80 251.00 L 394.85 246.00 L 396.75 241.00 L 427.06 210.00 L 434.26 197.00 L 437.20 187.00 L 437.87 172.00 L 434.43 157.00 L 428.34 146.00 L 419.00 135.47 L 409.00 128.70 L 399.00 124.77 L 391.00 123.16 L 376.00 123.20 L 363.00 126.67 L 353.00 131.96 L 344.19 139.00 L 307.71 176.00 L 307.21 178.00 L 309.97 181.00 L 416.04 287.00 L 420.29 292.00 L 421.07 295.00 L 416.61 301.00 L 281.59 436.00 L 272.00 441.33 Z M 267.83 349.00 L 277.00 348.19 L 286.97 345.00 L 296.38 340.00 L 305.08 333.00 L 313.00 322.83 L 318.62 311.00 L 321.22 298.00 L 321.31 291.00 L 319.33 280.00 L 316.01 271.00 L 308.99 260.00 L 302.09 253.00 L 286.00 243.62 L 277.00 240.94 L 266.00 239.79 L 256.00 240.90 L 241.00 245.97 L 231.87 252.00 L 225.00 258.74 L 218.62 268.00 L 214.04 279.00 L 212.24 289.00 L 212.17 298.00 L 213.56 307.00 L 217.83 319.00 L 228.00 333.21 L 235.00 339.06 L 246.00 345.08 L 256.00 348.22 L 267.83 349.00 Z M 273.00 329.06 L 260.00 329.25 L 247.00 324.09 L 236.47 313.00 L 231.75 301.00 L 231.88 287.00 L 236.82 275.00 L 242.71 268.00 L 248.00 264.02 L 260.00 259.47 L 266.00 258.71 L 275.88 261.00 L 275.52 271.00 L 279.00 276.90 L 287.00 281.06 L 297.00 278.64 L 299.11 281.00 L 301.49 288.00 L 301.15 302.00 L 295.41 315.00 L 290.24 321.00 L 284.41 325.00 L 273.00 329.06 Z" fill="#000" fill-rule="evenodd"/>
</svg>
