<svg xmlns="http://www.w3.org/2000/svg" viewBox="0 0 512 512" width="512" height="512">
  <path d="M 253.70 511.00 L 215.80 476.00 L 123.00 400.72 L 91.08 372.00 L 64.34 342.00 L 52.64 325.00 L 43.67 308.00 L 35.90 287.00 L 32.89 274.00 L 31.70 266.00 L 31.69 240.00 L 38.16 214.00 L 49.13 192.00 L 45.24 168.00 L 45.24 131.00 L 49.55 104.00 L 55.81 81.00 L 65.25 57.00 L 74.81 38.00 L 92.46 10.00 L 96.66 7.00 L 96.11 44.00 L 101.53 80.00 L 112.85 113.00 L 128.18 138.00 L 132.00 141.51 L 149.00 140.72 L 166.00 142.99 L 193.00 151.34 L 221.35 166.00 L 255.00 191.49 L 276.00 174.40 L 292.00 163.73 L 311.00 153.76 L 344.00 142.98 L 360.00 140.72 L 378.00 141.51 L 381.79 138.00 L 390.54 125.00 L 399.14 108.00 L 407.44 83.00 L 411.62 62.00 L 413.84 41.00 L 412.83 9.00 L 414.00 6.71 L 426.19 23.00 L 442.71 53.00 L 451.13 73.00 L 460.41 105.00 L 464.73 133.00 L 464.72 167.00 L 460.64 191.00 L 473.76 220.00 L 478.28 243.00 L 478.25 264.00 L 472.72 291.00 L 465.30 310.00 L 458.34 323.00 L 447.61 339.00 L 432.83 357.00 L 395.80 393.00 L 296.16 474.00 L 256.26 511.00 L 253.70 511.00 Z" fill="#000" fill-rule="evenodd"/>
</svg>
