<svg xmlns="http://www.w3.org/2000/svg" viewBox="0 0 512 512" width="512" height="512">
  <path d="M 370.00 372.56 L 255.00 259.26 L 252.16 260.00 L 139.00 372.78 L 105.90 340.00 L 102.00 338.62 L 92.37 329.00 L 92.52 325.00 L 165.00 252.53 L 169.00 251.07 L 173.70 246.00 L 171.00 244.59 L 60.00 244.56 L 55.54 241.00 L 55.39 181.00 L 59.00 176.79 L 171.00 176.00 L 169.00 172.55 L 139.46 143.00 L 133.00 139.08 L 92.00 97.99 L 92.09 95.00 L 136.00 51.03 L 142.01 51.00 L 149.07 58.00 L 150.54 62.00 L 216.00 127.34 L 217.50 127.00 L 217.85 125.00 L 217.87 17.00 L 220.00 14.11 L 286.00 14.09 L 290.03 17.00 L 290.67 125.00 L 292.00 127.64 L 341.00 79.04 L 342.52 75.00 L 369.00 48.72 L 416.45 95.00 L 416.53 98.00 L 414.00 100.73 L 377.68 137.00 L 371.12 141.00 L 337.41 175.00 L 340.00 176.60 L 450.00 176.62 L 453.13 178.00 L 453.27 240.00 L 450.00 244.17 L 338.00 244.58 L 335.00 245.67 L 340.00 251.40 L 346.00 254.91 L 416.68 326.00 L 416.20 329.00 L 414.00 331.21 L 410.00 332.68 L 370.00 372.56 Z M 290.00 496.35 L 221.00 496.92 L 218.26 496.00 L 217.88 342.00 L 221.61 337.00 L 288.00 336.76 L 290.47 338.00 L 290.00 496.35 Z" fill="#000" fill-rule="evenodd"/>
</svg>
